#N canvas 436 129 659 347 10;
#X obj 143 211 bng 19 250 50 0 empty empty empty 0 -10 0 12 #fcfcfc #000000 #000000;
#X msg 184 137 10;
#X obj 115 174 seld 3 5 7;
#X msg 76 50 5;
#X msg 179 51 1 2 3;
#X msg 118 50 10;
#X msg 34 50 2;
#X text 179 76 index;
#X text 180 119 value;
#X text 190 220 match;
#X floatatom 98 253 5 0 0 0 - - - 0;
#X text 115 33 input;
#X text 30 33 input;
#X text 73 33 input;
#X text 267 46 input: float.;
#X text 267 12 Seld - outputs a bang if the input matches an element of the argument list.;
#X text 177 33 update;
#X text 266 233 'index' and 'value' can each be sent as messages to the left input \, each with one argument.;
#X text 96 269 mismatch;
#X text 267 264 mismatch: float. If 'input' float does not match any element of the argument list \, it is output here.;
#X obj 165 238 bng 19 250 50 0 empty empty empty 0 -10 0 12 #fcfcfc #000000 #000000;
#X obj 189 264 bng 19 250 50 0 empty empty empty 0 -10 0 12 #fcfcfc #000000 #000000;
#X text 267 65 match: output a bang when the 'input' float matches one of the floats in the object's argument list.;
#X text 267 194 value: float. Update one of the elements of the object's argument list according to the value of 'index'. index==0 is the leftmost argument/element;
#X msg 181 94 1;
#X text 266 162 index: integer. Default 0 - must be input before 'value' is updated. Modulus of the absolute value is used.;
#X listbox 43 216 10 0 0 0 - - - 0;
#X text 40 232 arguments;
#X text 267 93 update: update argument list with a list of floats. The length of the object's argument list remains the same. If the update is shorter \, only the beginning part of the argument list is updated. If the update is longer \, it is truncated to the length of the argument list.;
#X obj 26 136 loadbang;
#X text 267 297 arguments: updated argument list. Use [loadbang] to output the initial argument list.;
#X connect 1 0 2 2;
#X connect 2 0 26 0;
#X connect 2 1 10 0;
#X connect 2 2 0 0;
#X connect 2 3 20 0;
#X connect 2 4 21 0;
#X connect 3 0 2 0;
#X connect 4 0 2 0;
#X connect 5 0 2 0;
#X connect 6 0 2 0;
#X connect 24 0 2 1;
#X connect 29 0 2 0;
