#N canvas 5 19 659 351 10;
#X obj 36 137 bng 15 250 50 0 empty empty empty 17 7 0 10 #fcfcfc #000000 #000000;
#X obj 87 176 jabea 0.25;
#X floatatom 87 213 4 0 0 0 - - - 0;
#X obj 87 243 bng 15 250 50 0 empty empty empty 17 7 0 10 #fcfcfc #000000 #000000;
#X msg 46 91 3;
#X msg 126 83 1 \, 2 \, 3 \, 4;
#X msg 140 111 reset;
#X msg 170 149 0.25;
#X text 44 74 number;
#X text 167 132 fraction;
#X text 267 12 Jabea - outputs a series of the integers in random order without repeating any \, then reshuffles.;
#X text 267 45 bang: output next integer in the series.;
#X text 267 64 fraction: (0 <= fraction <= 0.5) if nonzero \, ensures that the last fraction (portion) of the series is not repeated at the beginning of the next. Takes effect on the next reshuffle. Can be an argument in the jabea object: [jabea fraction]. Default is zero.;
#X text 266 174 number: add an integer to the series by sending it to the left input. If the integer is alread in the series \, it will be removed. In either case \, a reshuffle occurs.;
#X text 267 130 reset: initially the series is empty and bang has no effect. A reset message to the left input returns the series to its initial state.;
#X text 266 252 'number' and 'fraction' can be each sent as messages to the left input \, each with one argument.;
#X msg 101 56 5 6 7 8;
#X text 266 285 Any element of the series of integers can be cloned by adding a multiple of 200 to it \, one or more times. The original integer will appear at the ouput more often.;
#X listbox 144 214 15 0 0 0 - - - 0;
#X text 153 196 series;
#X text 266 220 series: outputs a list of the current integer series \, or a 'set' message to clear the list box upon 'reset'.;
#X connect 0 0 1 0;
#X connect 1 0 2 0;
#X connect 1 1 18 0;
#X connect 2 0 3 0;
#X connect 4 0 1 0;
#X connect 5 0 1 0;
#X connect 6 0 1 0;
#X connect 7 0 1 1;
#X connect 16 0 1 0;
