#N canvas 323 79 595 752 12;
#X msg 282 216 5;
#X msg 306 193 6;
#X msg 278 172 7;
#X msg 304 153 8;
#X msg 281 135 9;
#X msg 308 114 10;
#X msg 285 100 11;
#X msg 308 82 12;
#X msg 290 59 13;
#X msg 320 37 14;
#X msg 294 19 15;
#X msg 311 236 4;
#X msg 282 258 3;
#X msg 313 274 2;
#X msg 287 291 1;
#X msg 309 313 0;
#X floatatom 107 390 5 0 0 0 - - -;
#X msg 387 71 100;
#X text 430 72 acts as rest;
#X msg 388 105 101;
#X msg 384 143 102;
#X text 170 380 replay;
#X obj 277 668 noteout 1;
#X obj 277 606 makenote 120 200;
#X msg 425 605 3;
#X msg 422 665 21;
#X obj 277 559 + 43;
#X msg 425 636 10;
#X floatatom 193 455 5 0 0 0 - - -;
#X obj 73 223 tgl 15 0 empty empty empty 17 7 0 10 -262144 -1 -1 1
1;
#X obj 154 491 select 100 101 102;
#X floatatom 302 525 5 0 0 0 - - -;
#X obj 73 265 metro 200;
#X obj 154 160 seq 0 16;
#X obj 154 28 loadbang;
#X obj 154 356 purdie 0.25;
#X obj 154 68 t b b;
#X obj 186 118 tgl 15 0 empty empty empty 17 7 0 10 -262144 -1 -1 1
1;
#X obj 187 402 tgl 15 0 empty empty empty 17 7 0 10 -262144 -1 -1 1
1;
#X obj 154 426 memorex 15;
#X connect 0 0 35 0;
#X connect 1 0 35 0;
#X connect 2 0 35 0;
#X connect 3 0 35 0;
#X connect 4 0 35 0;
#X connect 5 0 35 0;
#X connect 6 0 35 0;
#X connect 7 0 35 0;
#X connect 8 0 35 0;
#X connect 9 0 35 0;
#X connect 10 0 35 0;
#X connect 11 0 35 0;
#X connect 12 0 35 0;
#X connect 13 0 35 0;
#X connect 14 0 35 0;
#X connect 15 0 35 0;
#X connect 17 0 35 0;
#X connect 19 0 35 0;
#X connect 20 0 35 0;
#X connect 23 0 22 0;
#X connect 23 1 22 1;
#X connect 24 0 22 2;
#X connect 25 0 22 2;
#X connect 26 0 23 0;
#X connect 27 0 22 2;
#X connect 29 0 32 0;
#X connect 30 3 31 0;
#X connect 30 3 26 0;
#X connect 32 0 35 0;
#X connect 33 0 35 0;
#X connect 34 0 36 0;
#X connect 35 0 16 0;
#X connect 35 0 39 0;
#X connect 36 0 33 0;
#X connect 36 1 37 0;
#X connect 37 0 33 0;
#X connect 38 0 39 1;
#X connect 39 0 28 0;
#X connect 39 0 30 0;
