#N canvas 360 188 636 268 10;
#X obj 30 113 bng 15 250 50 0 empty empty empty 17 7 0 10 #fcfcfc #000000 #000000;
#X floatatom 81 189 4 0 0 0 - - - 0;
#X obj 81 219 bng 15 250 50 0 empty empty empty 17 7 0 10 #fcfcfc #000000 #000000;
#X msg 126 85 reset;
#X listbox 138 190 15 0 0 0 - - - 0;
#X text 147 172 series;
#X text 255 171 reset: initially the internal buffer is empty and bang has no effect. A reset message to the left input returns the buffer to its initial state., f 60;
#X text 255 217 series: outputs as a list the current contents of the internal buffer \, or a 'set' message to clear the list box upon 'reset'., f 60;
#X text 99 27 load;
#X msg 102 48 5 4 6 -1 7 8;
#X obj 81 152 jabea3;
#X obj 134 122 tgl 18 0 empty empty empty 0 -9 0 10 #fcfcfc #000000 #000000 0 1;
#X text 156 121 remove;
#X msg 54 75 -1;
#X text 51 55 load;
#X text 255 66 load: send a list of integers to the left input to load the internal buffer. If the buffer is already occupied \, the list is inserted at the beginning of the buffer. A message box with one element is handled as a list \, overriding default behavior.;
#X text 256 14 Jabea3 - upon a bang \, outputs a random integer from a previously loaded list of integers. Duplicate integers are allowed \, increaasing the probability that they will be output.;
#X text 255 128 remove: if toggled on \, for each integer in the input list \, the first (starting from the left) matching integer (if found) in the internal buffer is deleted.;
#X connect 0 0 10 0;
#X connect 1 0 2 0;
#X connect 3 0 10 0;
#X connect 9 0 10 0;
#X connect 10 0 1 0;
#X connect 10 1 4 0;
#X connect 11 0 10 1;
#X connect 13 0 10 0;
